<svg width="18" height="18" viewBox="0 0 18 18" fill="none" xmlns="http://www.w3.org/2000/svg">
<path d="M12.1998 12.1998V14.4397C12.1998 15.3358 12.1998 15.7838 12.0254 16.126C11.872 16.4271 11.6272 16.6718 11.3261 16.8252C10.9839 16.9996 10.5358 16.9996 9.63967 16.9996H3.55939C2.66326 16.9996 2.2152 16.9996 1.87292 16.8252C1.57185 16.6718 1.32707 16.4271 1.17367 16.126C0.999268 15.7838 0.999268 15.3358 0.999268 14.4397V8.36003C0.999268 7.46399 0.999268 7.01597 1.17367 6.67373C1.32707 6.37268 1.57185 6.12793 1.87292 5.97454C2.2152 5.80015 2.66326 5.80015 3.55939 5.80015H5.79949M8.35961 12.1998H14.4399C15.336 12.1998 15.7841 12.1998 16.1263 12.0255C16.4274 11.8721 16.6722 11.6273 16.8256 11.3263C17 10.984 17 10.536 17 9.63997V3.56026C17 2.66422 17 2.2162 16.8256 1.87396C16.6722 1.57292 16.4274 1.32816 16.1263 1.17477C15.7841 1.00039 15.336 1.00039 14.4399 1.00039H8.35961C7.46348 1.00039 7.01542 1.00039 6.67314 1.17477C6.37207 1.32816 6.12729 1.57292 5.97389 1.87396C5.79949 2.2162 5.79949 2.66422 5.79949 3.56026V9.63997C5.79949 10.536 5.79949 10.984 5.97389 11.3263C6.12729 11.6273 6.37207 11.8721 6.67314 12.0255C7.01542 12.1998 7.46348 12.1998 8.35961 12.1998Z" stroke="#2ED3B7" stroke-width="1.6" stroke-linecap="round" stroke-linejoin="round"/>
</svg>
