<svg width="386" height="160" viewBox="0 0 386 160" fill="none" xmlns="http://www.w3.org/2000/svg">
<g clip-path="url(#clip0_9449_35245)">
<mask id="path-1-inside-1_9449_35245" fill="white">
<path d="M0 0H386V160H0V0Z"/>
</mask>
<path d="M0 0H386V160H0V0Z" fill="black"/>
<g filter="url(#filter0_d_9449_35245)">
<path d="M138.029 91V68.6H146.621C147.837 68.6 148.936 68.904 149.917 69.512C150.899 70.12 151.677 70.936 152.253 71.96C152.829 72.9733 153.117 74.0987 153.117 75.336C153.117 76.3493 152.931 77.2827 152.557 78.136C152.195 78.9787 151.683 79.7093 151.021 80.328C150.371 80.9467 149.619 81.416 148.765 81.736L154.125 91H149.629L144.445 82.088H141.933V91H138.029ZM141.933 78.184H146.173C146.728 78.184 147.235 78.0453 147.693 77.768C148.152 77.4907 148.52 77.1173 148.797 76.648C149.075 76.1787 149.213 75.656 149.213 75.08C149.213 74.4933 149.075 73.9653 148.797 73.496C148.52 73.0267 148.152 72.6533 147.693 72.376C147.235 72.0987 146.728 71.96 146.173 71.96H141.933V78.184ZM163.132 91.416C161.66 91.416 160.316 91.0373 159.1 90.28C157.895 89.5227 156.929 88.504 156.204 87.224C155.489 85.944 155.132 84.5307 155.132 82.984C155.132 81.8213 155.34 80.7333 155.756 79.72C156.172 78.696 156.743 77.8 157.468 77.032C158.204 76.2533 159.057 75.6453 160.028 75.208C160.999 74.7707 162.033 74.552 163.132 74.552C164.38 74.552 165.521 74.8187 166.556 75.352C167.601 75.8747 168.487 76.5947 169.212 77.512C169.937 78.4293 170.465 79.4747 170.796 80.648C171.127 81.8213 171.201 83.048 171.02 84.328H159.324C159.473 84.9253 159.719 85.464 160.06 85.944C160.401 86.4133 160.833 86.792 161.356 87.08C161.879 87.3573 162.471 87.5013 163.132 87.512C163.815 87.5227 164.433 87.3627 164.988 87.032C165.553 86.6907 166.023 86.232 166.396 85.656L170.38 86.584C169.729 88.0027 168.759 89.1653 167.468 90.072C166.177 90.968 164.732 91.416 163.132 91.416ZM159.196 81.4H167.068C166.951 80.76 166.7 80.184 166.316 79.672C165.943 79.1493 165.479 78.7333 164.924 78.424C164.369 78.1147 163.772 77.96 163.132 77.96C162.492 77.96 161.9 78.1147 161.356 78.424C160.812 78.7227 160.348 79.1333 159.964 79.656C159.591 80.168 159.335 80.7493 159.196 81.4ZM178.526 71.64V75H182.894V78.904H178.526V91H174.622V78.904H172.878V75H174.622V71.64C174.622 70.7227 174.846 69.8853 175.294 69.128C175.753 68.36 176.366 67.752 177.134 67.304C177.902 66.8453 178.75 66.616 179.678 66.616C180.35 66.616 181.017 66.7547 181.678 67.032C182.339 67.3093 182.926 67.736 183.438 68.312L180.622 71.064C180.526 70.8827 180.387 70.7493 180.206 70.664C180.035 70.568 179.859 70.52 179.678 70.52C179.369 70.52 179.097 70.632 178.862 70.856C178.638 71.0693 178.526 71.3307 178.526 71.64ZM192.257 91.416C190.785 91.416 189.441 91.0373 188.225 90.28C187.02 89.5227 186.054 88.504 185.329 87.224C184.614 85.944 184.257 84.5307 184.257 82.984C184.257 81.8213 184.465 80.7333 184.881 79.72C185.297 78.696 185.868 77.8 186.593 77.032C187.329 76.2533 188.182 75.6453 189.153 75.208C190.124 74.7707 191.158 74.552 192.257 74.552C193.505 74.552 194.646 74.8187 195.681 75.352C196.726 75.8747 197.612 76.5947 198.337 77.512C199.062 78.4293 199.59 79.4747 199.921 80.648C200.252 81.8213 200.326 83.048 200.145 84.328H188.449C188.598 84.9253 188.844 85.464 189.185 85.944C189.526 86.4133 189.958 86.792 190.481 87.08C191.004 87.3573 191.596 87.5013 192.257 87.512C192.94 87.5227 193.558 87.3627 194.113 87.032C194.678 86.6907 195.148 86.232 195.521 85.656L199.505 86.584C198.854 88.0027 197.884 89.1653 196.593 90.072C195.302 90.968 193.857 91.416 192.257 91.416ZM188.321 81.4H196.193C196.076 80.76 195.825 80.184 195.441 79.672C195.068 79.1493 194.604 78.7333 194.049 78.424C193.494 78.1147 192.897 77.96 192.257 77.96C191.617 77.96 191.025 78.1147 190.481 78.424C189.937 78.7227 189.473 79.1333 189.089 79.656C188.716 80.168 188.46 80.7493 188.321 81.4ZM202.764 91L202.748 75H206.652L206.668 76.424C207.212 75.848 207.863 75.3947 208.62 75.064C209.377 74.7227 210.193 74.552 211.068 74.552C211.655 74.552 212.241 74.6373 212.828 74.808L211.292 78.744C210.887 78.584 210.481 78.504 210.076 78.504C209.447 78.504 208.871 78.6587 208.348 78.968C207.836 79.2667 207.425 79.6773 207.116 80.2C206.817 80.712 206.668 81.2827 206.668 81.912V91H202.764ZM214.702 91L214.686 75H218.59L218.606 76.424C219.15 75.848 219.8 75.3947 220.558 75.064C221.315 74.7227 222.131 74.552 223.006 74.552C223.592 74.552 224.179 74.6373 224.766 74.808L223.23 78.744C222.824 78.584 222.419 78.504 222.014 78.504C221.384 78.504 220.808 78.6587 220.286 78.968C219.774 79.2667 219.363 79.6773 219.054 80.2C218.755 80.712 218.606 81.2827 218.606 81.912V91H214.702ZM237.875 75H241.779V91H237.875L237.699 89.016C237.261 89.7307 236.68 90.312 235.955 90.76C235.24 91.1973 234.392 91.416 233.411 91.416C232.227 91.416 231.117 91.192 230.083 90.744C229.048 90.296 228.136 89.6773 227.347 88.888C226.568 88.0987 225.955 87.1867 225.507 86.152C225.069 85.1173 224.851 84.008 224.851 82.824C224.851 81.6827 225.059 80.6107 225.475 79.608C225.901 78.6053 226.493 77.7253 227.251 76.968C228.008 76.2107 228.883 75.6187 229.875 75.192C230.867 74.7653 231.933 74.552 233.075 74.552C234.131 74.552 235.075 74.7867 235.907 75.256C236.749 75.7253 237.464 76.3227 238.051 77.048L237.875 75ZM233.315 87.656C234.147 87.656 234.883 87.448 235.523 87.032C236.163 86.616 236.664 86.056 237.027 85.352C237.389 84.6373 237.571 83.8533 237.571 83C237.571 82.136 237.389 81.352 237.027 80.648C236.664 79.9333 236.157 79.368 235.507 78.952C234.867 78.536 234.136 78.328 233.315 78.328C232.493 78.328 231.741 78.5413 231.059 78.968C230.387 79.384 229.848 79.944 229.443 80.648C229.048 81.352 228.851 82.136 228.851 83C228.851 83.864 229.053 84.648 229.459 85.352C229.864 86.056 230.403 86.616 231.075 87.032C231.757 87.448 232.504 87.656 233.315 87.656ZM245.061 91V67H248.965V91H245.061Z" fill="url(#paint0_linear_9449_35245)"/>
</g>
<g opacity="0.4">
<path d="M293.477 131.58L293.483 131.558L296.273 121.854L296.261 121.845C296.386 121.6 296.711 121.073 297.377 120.609C298.527 119.807 298.664 118.478 298.664 118.478C299.278 117.884 299.97 117.377 300.597 116.796C300.662 116.736 300.73 116.669 300.75 116.582C300.771 116.485 300.726 116.386 300.67 116.303C300.347 115.824 299.752 115.754 299.257 115.976C298.968 116.106 298.708 116.29 298.466 116.493C298.35 116.589 297.957 116.854 297.838 117.03L300.057 112.292C300.254 111.872 300.125 111.391 299.771 111.225C299.593 111.142 299.392 111.153 299.21 111.237C299.095 111.29 298.99 111.376 298.901 111.483C298.908 111.448 298.912 111.427 298.912 111.427C296.314 109.242 293.107 116.68 293.107 116.68L292.197 118.827L284.478 133.138C283.387 135.215 284.228 137.782 286.337 138.81C286.367 138.825 286.398 138.838 286.428 138.852C287.047 139.209 287.765 139.414 288.531 139.414H303.72L306.994 131.635L293.477 131.58Z" fill="#FEC29E"/>
<path opacity="0.17" d="M290.877 139.41C290.383 139.395 290.682 139.404 290.877 139.41V139.41Z" fill="#FF887C"/>
<path opacity="0.17" d="M290.879 139.41C290.948 139.413 291.003 139.414 291.003 139.414C290.956 139.413 290.916 139.412 290.879 139.41Z" fill="#FF887C"/>
<path opacity="0.17" d="M293.485 131.558L293.043 133.096C292.928 133.522 292.795 133.981 292.654 134.448L292.12 136.306C292.046 136.545 291.953 136.771 291.843 136.984C291.383 138.36 291.004 139.414 291.004 139.414L296.467 131.592C295.108 131.592 294.796 131.56 293.485 131.558Z" fill="#FF887C"/>
<path d="M295.682 117.514C295.662 117.514 295.642 117.508 295.625 117.495C295.582 117.463 295.573 117.403 295.605 117.36C296.574 116.045 297.878 116.756 297.89 116.763C297.937 116.789 297.953 116.848 297.927 116.894C297.901 116.94 297.843 116.957 297.796 116.931C297.749 116.905 296.627 116.299 295.76 117.475C295.741 117.5 295.712 117.514 295.682 117.514Z" fill="#FB8E77"/>
<path d="M298.956 111.464C298.556 111.969 298.183 112.499 297.853 113.051C297.688 113.327 297.54 113.612 297.415 113.905C297.292 114.195 297.193 114.508 297.208 114.802L297.209 114.808C297.212 114.861 297.171 114.906 297.118 114.909C297.065 114.912 297.019 114.871 297.016 114.818C297.016 114.818 297.016 114.817 297.016 114.816C297.006 114.458 297.124 114.138 297.256 113.837C297.391 113.536 297.549 113.249 297.722 112.972C298.068 112.418 298.453 111.893 298.868 111.391C298.888 111.367 298.924 111.363 298.949 111.383C298.973 111.403 298.977 111.439 298.957 111.463L298.956 111.464Z" fill="#FB8E77"/>
<path d="M298.285 111.189C298.031 111.364 297.803 111.596 297.599 111.836C297.394 112.08 297.215 112.343 297.053 112.617C296.895 112.893 296.755 113.18 296.637 113.475C296.574 113.622 296.527 113.774 296.471 113.923L296.333 114.38L296.331 114.386C296.316 114.437 296.262 114.466 296.211 114.45C296.16 114.435 296.131 114.381 296.147 114.33C296.147 114.33 296.147 114.329 296.147 114.329L296.297 113.864C296.357 113.712 296.408 113.557 296.476 113.408C296.603 113.108 296.751 112.817 296.919 112.537C297.09 112.259 297.279 111.992 297.494 111.746C297.711 111.501 297.942 111.272 298.223 111.086C298.251 111.068 298.288 111.076 298.306 111.103C298.324 111.131 298.317 111.167 298.29 111.185L298.285 111.189Z" fill="#FB8E77"/>
<path d="M297.236 111.263C296.867 111.649 296.524 112.066 296.227 112.509C296.081 112.732 295.94 112.96 295.83 113.199C295.718 113.438 295.627 113.686 295.586 113.939L295.586 113.942C295.578 113.994 295.528 114.03 295.476 114.022C295.423 114.014 295.387 113.964 295.396 113.912C295.396 113.911 295.396 113.91 295.396 113.909C295.448 113.629 295.552 113.37 295.675 113.124C295.796 112.876 295.946 112.647 296.101 112.423C296.416 111.978 296.772 111.568 297.157 111.183C297.179 111.161 297.215 111.161 297.237 111.183C297.258 111.205 297.258 111.24 297.238 111.262L297.236 111.263Z" fill="#FB8E77"/>
<path d="M328.534 145.71L324.808 135.553C324.364 133.324 322.244 131.635 319.693 131.635L309.285 131.552L297.559 131.597V139.414H301.198L299.319 159.804L325.141 159.95L324.996 146.143L328.534 145.71Z" fill="#0E9384"/>
<path opacity="0.05" d="M309.264 131.639L309.285 131.552L297.559 131.597V139.414H301.198L301.217 139.208C301.217 135.082 304.803 131.73 309.264 131.639Z" fill="#1B1B25"/>
<path opacity="0.18" d="M294.445 120.327C294.445 120.327 295.103 125.917 295.142 125.783C295.181 125.648 296.271 121.854 296.271 121.854L294.445 120.327Z" fill="#FF887C"/>
<path d="M309.815 148.628L308.829 143.661L308.069 139.829C307.98 139.378 307.538 139.083 307.087 139.172L303.28 139.928C302.83 140.017 302.534 140.459 302.623 140.91L303.389 144.767L303.996 147.826L304.369 149.708C304.459 150.159 304.9 150.455 305.351 150.365L307.599 149.919L309.157 149.61C309.608 149.52 309.904 149.078 309.815 148.628Z" fill="#1B1B25"/>
<path d="M330.076 153.205L328.36 145.731L320.556 146.686L320.984 148.587L320.945 148.577L312.462 146.477L312.454 146.488C312.22 146.37 311.78 146.091 311.394 145.513C310.682 144.45 309.487 144.42 309.487 144.42C309.257 144.179 309.043 143.921 308.831 143.661L309.029 144.663L308.98 144.689C308.44 144.975 307.832 145.102 307.223 145.054C306.097 144.967 304.258 144.823 303.493 144.763C303.26 144.745 303.036 144.869 302.935 145.081C301.843 147.376 306.531 149.475 307.601 149.919H307.601C307.615 149.925 307.626 149.929 307.639 149.935C307.654 149.941 307.669 149.947 307.682 149.953C307.698 149.959 307.71 149.964 307.723 149.969C307.735 149.974 307.747 149.979 307.757 149.983C307.771 149.988 307.78 149.992 307.789 149.995C307.793 149.997 307.798 149.999 307.802 150C307.812 150.004 307.818 150.006 307.818 150.006L309.652 150.694L324.176 157.843C324.311 157.908 324.448 157.964 324.585 158.013C325.29 158.336 326.1 158.441 326.914 158.254C329.181 157.733 330.597 155.473 330.076 153.205Z" fill="#FEC29E"/>
<path opacity="0.17" d="M329.524 150.796L320.557 146.686C320.856 147.99 320.682 147.415 320.946 148.577L321.556 148.728C324.138 148.903 329.524 150.796 329.524 150.796Z" fill="#FF887C"/>
<path opacity="0.35" d="M319.832 146.782C319.787 146.782 319.747 146.751 319.738 146.706L318.617 141.278C318.606 141.226 318.64 141.175 318.692 141.165C318.743 141.153 318.795 141.187 318.806 141.239L319.909 146.579L323.682 146.099C323.734 146.091 323.783 146.129 323.79 146.182C323.797 146.235 323.759 146.283 323.706 146.29L319.844 146.782C319.84 146.782 319.836 146.782 319.832 146.782Z" fill="#1B1B25"/>
<path opacity="0.17" d="M329.582 151.104C329.589 151.141 329.595 151.171 329.597 151.182C329.596 151.174 329.591 151.149 329.582 151.104Z" fill="#FF887C"/>
<path opacity="0.17" d="M329.598 151.181C329.599 151.186 329.599 151.186 329.598 151.181V151.181Z" fill="#FF887C"/>
<path opacity="0.17" d="M329.521 150.796C329.521 150.796 329.542 150.9 329.562 151.001C329.551 150.947 329.538 150.882 329.521 150.796Z" fill="#FF887C"/>
<path opacity="0.17" d="M329.561 151.002C329.569 151.043 329.576 151.078 329.581 151.105C329.575 151.074 329.568 151.038 329.561 151.002Z" fill="#FF887C"/>
<path d="M318.947 111.513C318.71 109.877 317.217 108.712 315.562 108.899C315.123 108.949 314.717 109.091 314.359 109.3C313.826 108.429 312.824 107.895 311.743 108.017C311.125 108.087 310.581 108.362 310.166 108.763C309.569 108.464 308.882 108.327 308.169 108.407C306.21 108.629 304.801 110.397 305.023 112.356C305.127 113.272 305.569 114.067 306.211 114.632L305.485 118.508C305.277 119.621 306.01 120.692 307.123 120.9L315.72 122.51C316.833 122.718 317.904 121.985 318.112 120.872L319.521 113.348C319.651 112.653 319.414 111.975 318.947 111.513Z" fill="#1B1B25"/>
<path d="M306.417 113.632C306.386 113.632 306.354 113.616 306.336 113.587C304.8 111.157 306.916 109.599 306.937 109.583C306.98 109.552 307.04 109.562 307.071 109.605C307.102 109.649 307.092 109.709 307.049 109.74C306.968 109.799 305.062 111.21 306.499 113.484C306.528 113.529 306.514 113.589 306.469 113.617C306.453 113.628 306.435 113.632 306.417 113.632Z" fill="#FCF0E3"/>
<path d="M317.556 119.112L317.367 119.076L315.47 114.997C315.003 114.929 314.565 114.757 314.185 114.5C313.821 114.895 313.321 115.166 312.745 115.231C312.053 115.309 311.4 115.073 310.923 114.637C310.394 115.102 309.724 115.417 308.971 115.502C308.11 115.6 307.286 115.382 306.614 114.941L305.292 122.003C305.109 122.979 305.309 123.935 305.781 124.725C306.251 125.887 307.262 126.8 308.561 127.099V131.763C308.561 133.383 309.887 134.708 311.507 134.708H312.436C314.056 134.708 315.381 133.383 315.381 131.763V126.468C315.859 125.943 316.205 125.286 316.345 124.537L316.586 123.247L316.774 123.283C317.89 123.491 318.974 122.749 319.183 121.633L319.204 121.52C319.414 120.404 318.671 119.32 317.556 119.112Z" fill="#FEC29E"/>
<path opacity="0.32" d="M316.149 123.084L315.977 124.004C315.58 126.126 313.537 127.524 311.415 127.127L308.415 126.565C307.268 126.351 306.336 125.654 305.781 124.725C306.27 125.935 307.344 126.88 308.722 127.138L308.842 127.16C309.318 128.148 310.328 128.835 311.493 128.835H312.434C313.824 128.835 314.995 127.859 315.3 126.558C315.821 126.02 316.197 125.329 316.345 124.537L316.586 123.247L316.149 123.084Z" fill="#FF887C"/>
<path d="M317.723 121.878C317.702 121.878 317.681 121.871 317.664 121.857L316.914 121.276C316.892 121.258 316.878 121.232 316.877 121.204C316.876 121.176 316.887 121.149 316.907 121.129L317.832 120.257C317.87 120.22 317.932 120.222 317.968 120.261C318.004 120.299 318.002 120.36 317.964 120.397L317.121 121.192L317.782 121.705C317.824 121.738 317.832 121.798 317.799 121.84C317.78 121.865 317.752 121.878 317.723 121.878Z" fill="#FB8E77"/>
<path d="M312.955 118.293C312.81 118.289 312.661 118.201 312.512 118.124C312.364 118.044 312.213 117.967 312.079 117.905C311.946 117.843 311.79 117.777 311.633 117.715C311.479 117.65 311.315 117.592 311.221 117.484C311.128 117.382 311.147 117.221 311.362 117.114C311.567 117.007 311.985 116.982 312.428 117.187C312.869 117.394 313.113 117.728 313.158 117.951C313.209 118.183 313.093 118.298 312.955 118.293Z" fill="#1B1B25"/>
<path d="M306.824 117.765C306.949 117.833 307.121 117.843 307.288 117.86C307.456 117.875 307.624 117.893 307.77 117.914C307.916 117.934 308.083 117.963 308.248 117.995C308.413 118.024 308.583 118.062 308.719 118.03C308.851 118 308.92 117.873 308.794 117.686C308.677 117.506 308.336 117.279 307.853 117.211C307.37 117.144 306.988 117.269 306.832 117.412C306.667 117.557 306.704 117.7 306.824 117.765Z" fill="#1B1B25"/>
<path d="M311.536 119.94L311.549 119.942C311.678 119.966 311.804 119.88 311.828 119.752L311.885 119.446C311.909 119.317 311.823 119.192 311.694 119.168L311.681 119.166C311.552 119.142 311.427 119.227 311.403 119.356L311.346 119.661C311.322 119.79 311.408 119.916 311.536 119.94Z" fill="#1B1B25"/>
<path d="M307.384 119.265L307.397 119.268C307.526 119.292 307.651 119.206 307.675 119.077L307.733 118.772C307.757 118.643 307.671 118.518 307.542 118.494L307.529 118.491C307.4 118.467 307.275 118.553 307.251 118.682L307.194 118.987C307.169 119.116 307.255 119.241 307.384 119.265Z" fill="#1B1B25"/>
<path opacity="0.17" d="M311.709 121.044L312.562 121.14C312.723 121.158 312.87 121.041 312.888 120.879L312.89 120.863C312.908 120.702 312.791 120.555 312.63 120.537L311.777 120.441C311.616 120.423 311.469 120.54 311.451 120.701L311.449 120.717C311.431 120.879 311.548 121.026 311.709 121.044Z" fill="#FF887C"/>
<path opacity="0.17" d="M306.086 120.158L306.939 120.254C307.1 120.272 307.247 120.155 307.265 119.994L307.267 119.977C307.285 119.816 307.168 119.669 307.007 119.651L306.154 119.555C305.993 119.537 305.846 119.654 305.828 119.815L305.826 119.832C305.808 119.993 305.925 120.14 306.086 120.158Z" fill="#FF887C"/>
<path d="M308.571 124.52C308.541 124.52 308.512 124.506 308.493 124.48C308.462 124.437 308.471 124.377 308.514 124.346C308.918 124.051 309.37 124.216 309.553 124.345C309.596 124.375 309.607 124.435 309.576 124.478C309.546 124.522 309.486 124.532 309.442 124.502C309.425 124.49 309.019 124.215 308.628 124.501C308.611 124.514 308.591 124.52 308.571 124.52Z" fill="#FB8E77"/>
<path d="M309.221 121.781L311.474 121.459L311.227 122.242C311.069 122.743 310.604 123.083 310.079 123.083C309.67 123.083 309.327 122.775 309.284 122.369L309.221 121.781Z" fill="white"/>
<path d="M309.804 120.982C309.797 120.982 309.788 120.981 309.78 120.979L309.082 120.797C308.785 120.72 308.546 120.515 308.426 120.233C308.305 119.952 308.321 119.637 308.47 119.369L309.534 117.454C309.56 117.407 309.619 117.391 309.665 117.417C309.711 117.443 309.728 117.502 309.702 117.548L308.638 119.463C308.519 119.678 308.506 119.931 308.603 120.158C308.7 120.384 308.892 120.549 309.13 120.611L309.829 120.793C309.88 120.806 309.911 120.859 309.897 120.911C309.886 120.954 309.847 120.982 309.804 120.982Z" fill="#FB8E77"/>
</g>
<g opacity="0.4">
<path d="M107.687 135.129L99.9684 120.818L99.0583 118.671C99.0583 118.671 95.8517 111.233 93.253 113.418C93.253 113.418 93.2571 113.439 93.2638 113.473C93.1756 113.366 93.0704 113.281 92.9552 113.228C92.7733 113.144 92.572 113.133 92.3947 113.216C92.0402 113.382 91.9113 113.862 92.1082 114.283L94.3272 119.021C94.2077 118.845 93.8147 118.58 93.6996 118.484C93.4569 118.281 93.1977 118.096 92.908 117.967C92.4132 117.745 91.8186 117.815 91.495 118.294C91.4393 118.377 91.3942 118.476 91.4156 118.573C91.4347 118.66 91.5029 118.726 91.5684 118.787C92.1953 119.368 92.8874 119.875 93.5014 120.469C93.5014 120.469 93.6388 121.798 94.7886 122.6C95.4539 123.064 95.7791 123.591 95.9045 123.836L95.8926 123.845L98.6884 133.571L94.6056 133.626V141.405H103.635C104.402 141.405 105.12 141.199 105.739 140.841C105.769 140.827 105.799 140.815 105.829 140.801C107.937 139.773 108.778 137.205 107.687 135.129Z" fill="#FEC29E"/>
<path opacity="0.17" d="M101.163 141.405C101.163 141.405 99.0651 135.76 98.7046 133.549C97.3143 133.549 97.103 133.611 95.7129 133.611L101.163 141.405Z" fill="#FF887C"/>
<path d="M96.4819 119.505C96.4524 119.505 96.4231 119.491 96.4042 119.466C95.5374 118.29 94.4151 118.896 94.3679 118.922C94.3215 118.948 94.2629 118.931 94.2369 118.885C94.2109 118.839 94.2275 118.78 94.2737 118.754C94.2868 118.747 95.59 118.037 96.5593 119.351C96.5909 119.394 96.5819 119.454 96.5391 119.486C96.5218 119.499 96.5017 119.505 96.4819 119.505Z" fill="#FB8E77"/>
<path d="M93.2931 113.377C93.527 113.611 93.7395 113.859 93.942 114.117C94.1431 114.376 94.3316 114.645 94.5003 114.928C94.6664 115.212 94.8144 115.508 94.9321 115.819C95.0435 116.132 95.1224 116.458 95.1488 116.795C95.1531 116.848 95.1134 116.894 95.0604 116.898C95.0074 116.902 94.961 116.863 94.9568 116.81C94.9568 116.809 94.9568 116.809 94.9568 116.808L94.9566 116.804C94.9379 116.491 94.8701 116.179 94.7691 115.877C94.662 115.577 94.5242 115.286 94.3676 115.005C94.2082 114.726 94.0285 114.457 93.8356 114.199C93.642 113.941 93.4349 113.69 93.2127 113.459L93.2114 113.458C93.1894 113.435 93.19 113.398 93.2129 113.376C93.2353 113.355 93.2709 113.355 93.2931 113.377Z" fill="#FB8E77"/>
<path d="M93.9443 113.007C94.2586 113.169 94.4888 113.411 94.7042 113.665C94.9158 113.922 95.1 114.2 95.2581 114.49C95.4215 114.779 95.5566 115.081 95.6851 115.385L95.8602 115.849L96.0159 116.318C96.0327 116.369 96.0053 116.423 95.9548 116.44C95.9043 116.457 95.8498 116.429 95.833 116.379C95.8329 116.379 95.8329 116.378 95.8327 116.378L95.8313 116.374L95.6866 115.908L95.5229 115.45C95.4024 115.149 95.2755 114.85 95.121 114.565C94.9716 114.278 94.7973 114.005 94.5973 113.752C94.3986 113.505 94.1651 113.261 93.8977 113.117L93.8887 113.112C93.8598 113.097 93.849 113.06 93.8646 113.031C93.88 113.003 93.9154 112.992 93.9443 113.007Z" fill="#FB8E77"/>
<path d="M95.0036 113.17C95.22 113.344 95.4111 113.537 95.5921 113.743C95.7724 113.948 95.9387 114.167 96.087 114.397C96.2365 114.626 96.3716 114.866 96.4835 115.117C96.6018 115.365 96.6885 115.627 96.7677 115.891C96.7829 115.942 96.7542 115.996 96.7032 116.011C96.6523 116.026 96.5985 115.998 96.5831 115.946C96.5829 115.946 96.5827 115.945 96.5825 115.945L96.5812 115.94C96.5111 115.685 96.4342 115.43 96.3255 115.187C96.2232 114.942 96.098 114.706 95.9581 114.479C95.8194 114.251 95.6626 114.034 95.4913 113.829C95.3208 113.625 95.1347 113.428 94.9345 113.258L94.932 113.256C94.9083 113.236 94.9054 113.201 94.9254 113.177C94.9455 113.154 94.9801 113.151 95.0036 113.17Z" fill="#FB8E77"/>
<path opacity="0.18" d="M95.5449 123.295L98.5276 122.927L96.6832 126.595C96.6832 126.595 96.1343 123.867 95.5449 123.295Z" fill="#FF887C"/>
<path d="M83.5603 133.626L83.5609 133.629C83.5148 133.628 83.4691 133.626 83.4229 133.626H73.9982C71.9521 133.626 70.2067 134.911 69.5228 136.717L69.5218 136.717L69.5074 136.756C69.505 136.762 69.5027 136.769 69.5004 136.775L65.4922 147.701L69.2134 148.156V160.29H89.4649L90.9793 141.405H94.5022V133.588L83.5603 133.626Z" fill="white"/>
<path opacity="0.05" d="M94.6067 133.588L83.8477 133.633L83.8478 133.634C87.8815 133.802 91.1004 137.124 91.1004 141.199L91.0838 141.405H94.6067V133.588Z" fill="#1B1B25"/>
<path d="M90.851 141.919L87.0447 141.164C86.5939 141.074 86.1519 141.37 86.0625 141.821L85.3022 145.653L84.3167 150.619C84.2273 151.07 84.5229 151.512 84.9737 151.601L86.5318 151.911L88.7799 152.357C89.2307 152.446 89.6727 152.151 89.7621 151.7L90.1356 149.817L90.7425 146.758L91.5078 142.901C91.5974 142.45 91.3019 142.008 90.851 141.919Z" fill="#1B1B25"/>
<path d="M91.2488 147.033C91.2014 146.933 91.1258 146.854 91.0357 146.799C91.0195 146.775 91.0064 146.751 90.9889 146.727C90.9889 146.727 90.9546 146.731 90.8977 146.738C90.8316 146.719 90.7619 146.71 90.6908 146.715C89.9263 146.775 88.0867 146.919 86.9608 147.007C86.3523 147.054 85.7439 146.927 85.2046 146.642L85.1146 146.594L85.3013 145.653C85.1 145.899 84.8956 146.143 84.6786 146.374C84.5686 146.38 83.9405 146.435 83.3531 146.873C83.1352 147.027 82.9208 147.231 82.7381 147.504C82.5088 147.846 82.2613 148.083 82.0484 148.244C81.9239 148.334 81.8133 148.398 81.7297 148.44L81.7224 148.429L73.2385 150.53L73.1996 150.539L73.6302 148.629L65.8243 147.683L64.1078 155.157C63.587 157.425 65.0031 159.685 67.2706 160.206C68.0841 160.393 68.8946 160.288 69.5988 159.965C69.7366 159.916 69.873 159.86 70.0078 159.795L84.3679 152.727L86.3144 151.997C86.3144 151.997 86.3932 151.967 86.5309 151.91L86.5024 151.905C87.3904 151.543 92.3703 149.391 91.2488 147.033Z" fill="#FEC29E"/>
<path opacity="0.17" d="M64.5486 153.089C64.5404 153.13 64.5353 153.156 64.5332 153.167C64.5359 153.153 64.5414 153.125 64.5486 153.089Z" fill="#FF887C"/>
<path opacity="0.17" d="M73.1847 150.569C73.3605 149.76 73.3096 149.83 73.5764 148.668L64.6074 152.787C64.6074 152.787 65.4962 152.519 66.7225 152.194C66.8366 152.152 66.9526 152.114 67.0722 152.082L73.1847 150.569Z" fill="#FF887C"/>
<path opacity="0.17" d="M64.5706 152.979C64.5629 153.018 64.5554 153.056 64.5488 153.089C64.5542 153.061 64.5615 153.024 64.5706 152.979Z" fill="#FF887C"/>
<path opacity="0.17" d="M64.533 153.166C64.5307 153.178 64.5307 153.179 64.533 153.166V153.166Z" fill="#FF887C"/>
<path opacity="0.17" d="M64.6083 152.787C64.5927 152.866 64.5807 152.927 64.5703 152.979C64.5894 152.882 64.6083 152.787 64.6083 152.787Z" fill="#FF887C"/>
<path opacity="0.35" d="M74.3012 148.765C74.2972 148.765 74.2933 148.764 74.2893 148.764L72.5865 148.554C72.5337 148.547 72.4961 148.499 72.5027 148.446C72.5092 148.393 72.5582 148.355 72.61 148.362L74.2203 148.561L75.1168 142.84C75.1251 142.787 75.1742 142.752 75.227 142.76C75.2796 142.768 75.3154 142.817 75.3073 142.87L74.3962 148.683C74.3889 148.73 74.3479 148.765 74.3012 148.765Z" fill="#1B1B25"/>
<path opacity="0.08" d="M76.2891 149.768L80.1337 149.672C80.851 149.766 81.9928 149.119 81.8602 148.408L76.2891 149.768Z" fill="#FF887C"/>
<path d="M88.4212 131.165L87.1137 122.266C86.9706 121.291 86.6872 120.372 86.2899 119.523L86.9999 119.409C86.9999 119.409 86.5014 112.186 78.4004 113.91C77.6023 113.828 76.7816 113.842 75.9514 113.964C72.0158 114.542 69.2942 118.201 69.8724 122.137L70.6346 127.324C71.2128 131.26 74.8719 133.982 78.8075 133.403L87.7316 132.092C88.1782 132.026 88.4869 131.611 88.4212 131.165Z" fill="#1B1B25"/>
<path d="M83.0474 119.125C83 119.125 82.9588 119.09 82.9521 119.042C82.9449 118.989 82.9817 118.941 83.0345 118.934L85.6396 118.578C85.6604 118.575 85.6794 118.563 85.6918 118.546C85.6987 118.537 85.7095 118.517 85.7049 118.491C85.2837 116.143 83.1204 115.06 83.0987 115.049C83.0509 115.026 83.031 114.968 83.0544 114.92C83.0779 114.872 83.1359 114.852 83.1833 114.876C83.206 114.887 85.4556 116.011 85.8945 118.457C85.9072 118.528 85.8906 118.6 85.8474 118.659C85.8043 118.719 85.738 118.758 85.6654 118.768L83.0603 119.124C83.0561 119.125 83.0517 119.125 83.0474 119.125Z" fill="#FCF0E3"/>
<path d="M85.5591 119.641L78.4282 120.787L76.6974 118.227C77.0375 121.083 74.9314 122.928 74.9314 122.928C74.9314 122.928 74.9099 122.898 74.8725 122.844L74.8133 122.855C73.6974 123.064 72.9553 124.148 73.1641 125.264C73.373 126.38 74.4569 127.122 75.5728 126.913L75.709 126.888C75.9528 127.958 76.5026 128.885 77.2523 129.589V134.159C77.2523 135.779 78.5779 137.104 80.1978 137.104C81.8177 137.104 83.1433 135.779 83.1433 134.159V130.55C84.3166 130.01 85.2353 129.066 85.7597 127.926C85.7609 127.924 85.762 127.923 85.763 127.921C86.4003 126.853 86.6668 125.558 86.4202 124.24L85.5591 119.641Z" fill="#FEC29E"/>
<path opacity="0.32" d="M82.1944 130.411C79.5524 130.905 77.0017 129.342 76.1932 126.852C76.1666 126.771 75.7014 126.878 75.7131 126.928C75.9628 127.988 76.5175 128.905 77.2654 129.602C77.4038 131.096 78.6686 132.276 80.197 132.276C81.3274 132.276 82.3129 131.63 82.8061 130.689C84.1421 130.182 85.189 129.17 85.762 127.921C85.0116 129.178 83.7467 130.12 82.1944 130.411Z" fill="#FF887C"/>
<path d="M74.5946 125.559C74.5659 125.559 74.5374 125.546 74.5185 125.522C74.4857 125.48 74.4934 125.419 74.5354 125.386L75.176 124.889L74.3584 124.118C74.3196 124.081 74.3179 124.02 74.3543 123.982C74.3909 123.943 74.4518 123.941 74.4905 123.977L75.3901 124.826C75.4105 124.846 75.4215 124.873 75.4202 124.901C75.4188 124.929 75.4051 124.955 75.383 124.973L74.6535 125.539C74.636 125.552 74.6152 125.559 74.5946 125.559Z" fill="#FB8E77"/>
<path d="M79.7237 122.047C79.8096 122.045 79.8981 121.993 79.9865 121.947C80.0746 121.899 80.1641 121.854 80.2433 121.817C80.3227 121.78 80.4154 121.741 80.5084 121.704C80.6 121.665 80.6973 121.631 80.7533 121.567C80.808 121.506 80.7972 121.411 80.6693 121.347C80.5476 121.284 80.2994 121.269 80.0364 121.39C79.7744 121.513 79.6297 121.712 79.6029 121.844C79.5728 121.982 79.6414 122.05 79.7237 122.047Z" fill="#1B1B25"/>
<path d="M84.8357 121.158C84.7525 121.179 84.6531 121.154 84.5556 121.135C84.4579 121.113 84.3591 121.094 84.2728 121.081C84.1863 121.067 84.0865 121.055 83.9869 121.045C83.8882 121.034 83.7851 121.027 83.7137 120.982C83.6445 120.938 83.6283 120.844 83.7337 120.747C83.8331 120.652 84.0674 120.569 84.3539 120.614C84.6396 120.659 84.8336 120.81 84.896 120.93C84.9629 121.054 84.9159 121.138 84.8357 121.158Z" fill="#1B1B25"/>
<path d="M81.9482 126.033C81.1577 126.033 80.6306 125.413 80.6238 125.405C80.5897 125.364 80.5955 125.303 80.6362 125.269C80.677 125.235 80.7377 125.24 80.7718 125.281C80.8024 125.318 81.5336 126.172 82.5549 125.7C82.6033 125.678 82.6605 125.699 82.6829 125.747C82.7052 125.796 82.684 125.853 82.6357 125.875C82.3912 125.988 82.1602 126.033 81.9482 126.033Z" fill="#FB8E77"/>
<path d="M82.524 124.688C82.4789 124.688 82.4386 124.656 82.4295 124.611C82.4193 124.558 82.4532 124.508 82.5055 124.498L83.1831 124.364C83.6042 124.281 83.8792 123.871 83.7963 123.45C83.7665 123.298 83.6183 123.199 83.4663 123.229C83.1099 123.298 82.7638 123.066 82.6937 122.71L82.5301 121.879C82.5199 121.827 82.5538 121.776 82.606 121.766C82.6582 121.756 82.7089 121.79 82.7191 121.842L82.8827 122.673C82.9322 122.925 83.1777 123.09 83.4289 123.04C83.5536 123.016 83.6794 123.041 83.7844 123.111C83.8894 123.182 83.9607 123.289 83.9851 123.413C84.0886 123.939 83.7453 124.45 83.2201 124.554L82.5425 124.687C82.5365 124.688 82.5301 124.688 82.524 124.688Z" fill="#FB8E77"/>
<path d="M80.605 123.672C80.4761 123.697 80.3508 123.611 80.3268 123.482L80.2736 123.198C80.2495 123.069 80.3352 122.944 80.4641 122.92C80.593 122.895 80.7183 122.981 80.7423 123.11L80.7955 123.394C80.8196 123.523 80.7339 123.648 80.605 123.672Z" fill="#1B1B25"/>
<path d="M84.646 123.016C84.5171 123.04 84.3919 122.954 84.3678 122.825L84.3146 122.541C84.2905 122.412 84.3763 122.287 84.505 122.263C84.6338 122.239 84.7591 122.325 84.7832 122.454L84.8363 122.738C84.8606 122.866 84.7749 122.991 84.646 123.016Z" fill="#1B1B25"/>
<path opacity="0.17" d="M80.4368 124.746L79.6231 124.838C79.4619 124.856 79.3149 124.739 79.2968 124.578C79.2787 124.416 79.3958 124.269 79.5573 124.251L80.3707 124.16C80.532 124.142 80.679 124.259 80.6971 124.42C80.7154 124.581 80.598 124.728 80.4368 124.746Z" fill="#FF887C"/>
<path opacity="0.17" d="M85.9075 123.884L85.0938 123.976C84.9326 123.994 84.7856 123.877 84.7675 123.716C84.7494 123.554 84.8665 123.407 85.028 123.389L85.8416 123.298C86.0029 123.28 86.1499 123.397 86.168 123.558C86.1859 123.72 86.0687 123.866 85.9075 123.884Z" fill="#FF887C"/>
<path d="M83.4995 128.13C83.4798 128.13 83.4598 128.124 83.4428 128.111C83.0637 127.834 82.6701 128.101 82.6535 128.112C82.6098 128.143 82.55 128.132 82.5194 128.088C82.4889 128.045 82.4994 127.985 82.5429 127.955C82.7213 127.829 83.1627 127.668 83.5565 127.955C83.5995 127.987 83.6087 128.047 83.5775 128.09C83.5584 128.116 83.5292 128.13 83.4995 128.13Z" fill="#FB8E77"/>
</g>
<g opacity="0.7">
<path d="M305.494 79.5033C305.29 80.4573 304.352 81.0655 303.398 80.8617C302.444 80.658 301.836 79.7194 302.039 78.7655C302.243 77.8115 303.182 77.2033 304.135 77.4071C305.09 77.611 305.698 78.5495 305.494 79.5033Z" fill="#0E9384"/>
<path d="M305.571 82.2087C305.467 82.6936 304.99 83.0027 304.505 82.8992C304.02 82.7956 303.711 82.3185 303.815 81.8336C303.918 81.3487 304.396 81.0395 304.88 81.1431C305.365 81.2467 305.675 81.7238 305.571 82.2087Z" fill="#0E9384"/>
<path d="M343.828 88.2328C343.747 88.6125 343.374 88.8545 342.994 88.7734C342.614 88.6923 342.372 88.3189 342.453 87.9392C342.534 87.5594 342.908 87.3174 343.287 87.3985C343.667 87.4796 343.909 87.8532 343.828 88.2328Z" fill="#16FFB9"/>
<path d="M349.619 104.058C349.538 104.438 349.165 104.68 348.785 104.599C348.405 104.518 348.163 104.144 348.244 103.764C348.325 103.385 348.699 103.143 349.078 103.224C349.458 103.305 349.7 103.678 349.619 104.058Z" fill="#4E69FF"/>
<path d="M321.81 75.3512C321.81 74.1495 320.836 73.1756 319.635 73.1756C320.836 73.1756 321.81 72.2015 321.81 71C321.81 72.2015 322.784 73.1756 323.986 73.1756C322.784 73.1756 321.81 74.1495 321.81 75.3512Z" fill="white"/>
<path d="M306.251 98.2684C306.251 97.4295 305.571 96.7496 304.732 96.7496C305.571 96.7496 306.251 96.0697 306.251 95.2308C306.251 96.0697 306.931 96.7496 307.77 96.7496C306.931 96.7496 306.251 97.4295 306.251 98.2684Z" fill="white"/>
<path d="M335.161 109.607H352.517C354.302 109.607 355.749 111.054 355.749 112.839C355.749 114.624 354.302 116.071 352.517 116.071H338.214L336.246 117.864V116.071H335.162C333.377 116.071 331.93 114.624 331.93 112.839C331.929 111.054 333.376 109.607 335.161 109.607Z" fill="#16FFB9"/>
<path d="M352.128 112.364C352.349 112.18 352.489 111.904 352.489 111.595C352.489 111.043 352.042 110.596 351.491 110.596C350.939 110.596 350.492 111.044 350.492 111.595C350.492 111.904 350.633 112.18 350.853 112.364C350.145 112.624 349.639 113.302 349.639 114.101C349.639 115.124 353.343 115.124 353.343 114.101C353.343 113.302 352.837 112.624 352.128 112.364Z" fill="#4E69FF"/>
<path d="M353.648 112.919H353.169V112.441C353.169 112.389 353.127 112.347 353.075 112.347H352.639C352.587 112.347 352.545 112.389 352.545 112.441V112.919H352.066C352.015 112.919 351.973 112.961 351.973 113.013V113.45C351.973 113.502 352.015 113.544 352.066 113.544H352.545V114.022C352.545 114.074 352.587 114.116 352.639 114.116H353.075C353.127 114.116 353.169 114.074 353.169 114.022V113.544H353.648C353.699 113.544 353.741 113.502 353.741 113.45V113.013C353.741 112.961 353.699 112.919 353.648 112.919Z" fill="white"/>
<path d="M348.122 111.534H336.001C335.947 111.534 335.904 111.491 335.904 111.438C335.904 111.385 335.947 111.341 336.001 111.341H348.122C348.175 111.341 348.218 111.385 348.218 111.438C348.218 111.491 348.175 111.534 348.122 111.534Z" fill="white"/>
<path d="M346.241 114.378H336.001C335.947 114.378 335.904 114.335 335.904 114.282C335.904 114.229 335.947 114.186 336.001 114.186H346.241C346.294 114.186 346.338 114.229 346.338 114.282C346.338 114.335 346.295 114.378 346.241 114.378Z" fill="white"/>
<path d="M343.453 113.046H336.001C335.947 113.046 335.904 113.003 335.904 112.95C335.904 112.896 335.947 112.853 336.001 112.853H343.453C343.506 112.853 343.549 112.896 343.549 112.95C343.549 113.003 343.506 113.046 343.453 113.046Z" fill="white"/>
<path d="M348.122 113.046H344.381C344.328 113.046 344.285 113.003 344.285 112.95C344.285 112.896 344.328 112.853 344.381 112.853H348.122C348.175 112.853 348.218 112.896 348.218 112.95C348.218 113.003 348.175 113.046 348.122 113.046Z" fill="white"/>
<path d="M313.345 90.9749H325.301C326.531 90.9749 327.528 91.9718 327.528 93.2014C327.528 94.431 326.531 95.4278 325.301 95.4278H314.093H313.346C312.116 95.4278 311.119 94.431 311.119 93.2014C311.119 91.9718 312.116 90.9749 313.345 90.9749Z" fill="#0E9384"/>
<path d="M323.952 92.4692H314.682C314.629 92.4692 314.586 92.426 314.586 92.3728C314.586 92.3196 314.629 92.2765 314.682 92.2765H323.952C324.005 92.2765 324.048 92.3196 324.048 92.3728C324.048 92.426 324.005 92.4692 323.952 92.4692Z" fill="white"/>
<path d="M322.514 94.1534H314.682C314.629 94.1534 314.586 94.1103 314.586 94.0571C314.586 94.0039 314.629 93.9608 314.682 93.9608H322.514C322.567 93.9608 322.61 94.0039 322.61 94.0571C322.61 94.1103 322.567 94.1534 322.514 94.1534Z" fill="white"/>
<path d="M320.381 93.3646H314.682C314.629 93.3646 314.586 93.3215 314.586 93.2683C314.586 93.2151 314.629 93.172 314.682 93.172H320.381C320.434 93.172 320.477 93.2151 320.477 93.2683C320.477 93.3217 320.434 93.3646 320.381 93.3646Z" fill="white"/>
<path d="M323.953 93.3647H321.092C321.039 93.3647 320.996 93.3215 320.996 93.2683C320.996 93.2152 321.039 93.172 321.092 93.172H323.953C324.006 93.172 324.049 93.2152 324.049 93.2683C324.049 93.3217 324.006 93.3647 323.953 93.3647Z" fill="white"/>
</g>
<g opacity="0.7">
<path d="M54.6795 98.6687C55.1583 98.6687 55.5465 98.2805 55.5465 97.8017C55.5465 97.3229 55.1583 96.9347 54.6795 96.9347C54.2007 96.9347 53.8125 97.3229 53.8125 97.8017C53.8125 98.2805 54.2007 98.6687 54.6795 98.6687Z" fill="#0E9384"/>
<path d="M49.0917 102.329C49.2513 102.329 49.3807 102.2 49.3807 102.04C49.3807 101.881 49.2513 101.751 49.0917 101.751C48.9321 101.751 48.8027 101.881 48.8027 102.04C48.8027 102.2 48.9321 102.329 49.0917 102.329Z" fill="#17014C"/>
<path d="M68.9647 89.8499C68.8836 90.2297 68.5102 90.4716 68.1305 90.3905C67.7508 90.3094 67.5088 89.9358 67.5899 89.5563C67.671 89.1765 68.0444 88.9345 68.4241 89.0157C68.8039 89.0968 69.0459 89.4702 68.9647 89.8499Z" fill="#16FFB9"/>
<path d="M75.3789 99.2911H58.4628C56.723 99.2911 55.3125 100.701 55.3125 102.441C55.3125 104.181 56.7228 105.591 58.4628 105.591H72.4038L74.3218 107.339V105.591H75.3791C77.1189 105.591 78.5294 104.181 78.5294 102.441C78.529 100.701 77.1187 99.2911 75.3789 99.2911Z" fill="#0E9384"/>
<path d="M59.9877 102.007C60.2083 101.824 60.3487 101.548 60.3487 101.239C60.3487 100.687 59.9016 100.24 59.3502 100.24C58.7985 100.24 58.3516 100.687 58.3516 101.239C58.3516 101.548 58.492 101.824 58.7126 102.007C58.0044 102.267 57.498 102.946 57.498 103.744C57.498 104.767 61.2021 104.767 61.2021 103.744C61.2023 102.946 60.6959 102.267 59.9877 102.007Z" fill="#16FFB9"/>
<path d="M75.5908 100.985H63.4694C63.4162 100.985 63.373 100.941 63.373 100.888C63.373 100.835 63.4162 100.792 63.4694 100.792H75.5908C75.644 100.792 75.6871 100.835 75.6871 100.888C75.6871 100.941 75.644 100.985 75.5908 100.985Z" fill="white"/>
<path d="M73.7102 103.829H63.4694C63.4162 103.829 63.373 103.786 63.373 103.732C63.373 103.679 63.4162 103.636 63.4694 103.636H73.7102C73.7634 103.636 73.8065 103.679 73.8065 103.732C73.8065 103.786 73.7634 103.829 73.7102 103.829Z" fill="white"/>
<path d="M70.9213 102.496H63.4694C63.4162 102.496 63.373 102.453 63.373 102.4C63.373 102.347 63.4162 102.304 63.4694 102.304H70.9213C70.9745 102.304 71.0177 102.347 71.0177 102.4C71.0177 102.453 70.9745 102.496 70.9213 102.496Z" fill="white"/>
<path d="M75.5903 102.496H71.8502C71.7971 102.496 71.7539 102.453 71.7539 102.4C71.7539 102.347 71.7971 102.304 71.8502 102.304H75.5903C75.6435 102.304 75.6866 102.347 75.6866 102.4C75.6866 102.453 75.6435 102.496 75.5903 102.496Z" fill="white"/>
<path d="M60.55 103.457C60.476 103.457 60.4023 103.429 60.3458 103.372L59.6198 102.646C59.5069 102.534 59.5069 102.351 59.6198 102.238C59.7327 102.125 59.9156 102.125 60.0285 102.238L60.55 102.76L61.9517 101.358C62.0646 101.245 62.2474 101.245 62.3603 101.358C62.4732 101.471 62.4732 101.654 62.3603 101.767L60.7544 103.373C60.698 103.429 60.624 103.457 60.55 103.457Z" fill="white"/>
<path d="M47.9797 128.63H58.6104C59.7038 128.63 60.5901 129.516 60.5901 130.609C60.5901 131.703 59.7038 132.589 58.6104 132.589H48.6442H47.9797C46.8863 132.589 46 131.703 46 130.609C46 129.516 46.8863 128.63 47.9797 128.63Z" fill="#16FFB9"/>
<path d="M57.4109 129.969H49.1686C49.1154 129.969 49.0723 129.926 49.0723 129.873C49.0723 129.82 49.1154 129.776 49.1686 129.776H57.4109C57.4641 129.776 57.5072 129.82 57.5072 129.873C57.5072 129.926 57.4641 129.969 57.4109 129.969Z" fill="white"/>
<path d="M56.1322 131.467H49.1686C49.1154 131.467 49.0723 131.424 49.0723 131.371C49.0723 131.317 49.1154 131.274 49.1686 131.274H56.1322C56.1853 131.274 56.2285 131.317 56.2285 131.371C56.2285 131.424 56.1853 131.467 56.1322 131.467Z" fill="white"/>
<path d="M54.2357 130.765H49.1686C49.1154 130.765 49.0723 130.722 49.0723 130.669C49.0723 130.616 49.1154 130.573 49.1686 130.573H54.2357C54.2889 130.573 54.3321 130.616 54.3321 130.669C54.3321 130.722 54.2889 130.765 54.2357 130.765Z" fill="white"/>
<path d="M57.411 130.765H54.8678C54.8146 130.765 54.7715 130.722 54.7715 130.669C54.7715 130.616 54.8146 130.573 54.8678 130.573H57.411C57.4642 130.573 57.5074 130.616 57.5074 130.669C57.5074 130.722 57.4642 130.765 57.411 130.765Z" fill="white"/>
</g>
</g>
<path d="M386 159H0V161H386V159Z" fill="white" fill-opacity="0.1" mask="url(#path-1-inside-1_9449_35245)"/>
<defs>
<filter id="filter0_d_9449_35245" x="134.029" y="66.616" width="118.936" height="32.8" filterUnits="userSpaceOnUse" color-interpolation-filters="sRGB">
<feFlood flood-opacity="0" result="BackgroundImageFix"/>
<feColorMatrix in="SourceAlpha" type="matrix" values="0 0 0 0 0 0 0 0 0 0 0 0 0 0 0 0 0 0 127 0" result="hardAlpha"/>
<feOffset dy="4"/>
<feGaussianBlur stdDeviation="2"/>
<feComposite in2="hardAlpha" operator="out"/>
<feColorMatrix type="matrix" values="0 0 0 0 0 0 0 0 0 0 0 0 0 0 0 0 0 0 0.25 0"/>
<feBlend mode="normal" in2="BackgroundImageFix" result="effect1_dropShadow_9449_35245"/>
<feBlend mode="normal" in="SourceGraphic" in2="effect1_dropShadow_9449_35245" result="shape"/>
</filter>
<linearGradient id="paint0_linear_9449_35245" x1="146.009" y1="61" x2="197.591" y2="138.501" gradientUnits="userSpaceOnUse">
<stop stop-color="#01D1FF"/>
<stop offset="1" stop-color="#0194FF"/>
</linearGradient>
<clipPath id="clip0_9449_35245">
<path d="M0 0H386V160H0V0Z" fill="white"/>
</clipPath>
</defs>
</svg>
