<svg width="14" height="14" viewBox="0 0 14 14" fill="none" xmlns="http://www.w3.org/2000/svg">
<path d="M9.03367 5H2.66667C1.74619 5 1 4.25381 1 3.33333C1 2.41286 1.74619 1.66667 2.66667 1.66667H9.03367M4.96633 12.3333H11.3333C12.2538 12.3333 13 11.5871 13 10.6667C13 9.74619 12.2538 9 11.3333 9H4.96633M1 10.6667C1 11.9553 2.04467 13 3.33333 13C4.622 13 5.66667 11.9553 5.66667 10.6667C5.66667 9.378 4.622 8.33333 3.33333 8.33333C2.04467 8.33333 1 9.378 1 10.6667ZM13 3.33333C13 4.622 11.9553 5.66667 10.6667 5.66667C9.378 5.66667 8.33333 4.622 8.33333 3.33333C8.33333 2.04467 9.378 1 10.6667 1C11.9553 1 13 2.04467 13 3.33333Z" stroke="#2ED3B7" stroke-width="2" stroke-linecap="round" stroke-linejoin="round"/>
</svg>
