<svg width="386" height="160" viewBox="0 0 386 160" fill="none" xmlns="http://www.w3.org/2000/svg">
<g clip-path="url(#clip0_9449_35234)">
<mask id="path-1-inside-1_9449_35234" fill="white">
<path d="M0 0H386V160H0V0Z"/>
</mask>
<path d="M0 0H386V160H0V0Z" fill="black"/>
<g opacity="0.3" filter="url(#filter0_f_9449_35234)">
<path fill-rule="evenodd" clip-rule="evenodd" d="M299.494 61.0884C334.605 62.2909 341.991 76.567 367.046 84.0605C392.243 91.5965 438.43 93.8288 444.217 104.372C450.251 115.364 420.25 124.929 393.752 132.715C367.63 140.39 335.837 147.984 299.494 146.895C264.868 145.859 248.12 134.598 222.307 127.582C193.869 119.852 144.88 115.886 143.054 104.372C141.222 92.8175 186.266 86.672 214.576 78.8389C240.948 71.5423 263.886 59.869 299.494 61.0884Z" fill="#00A3FF"/>
</g>
<g style="mix-blend-mode:overlay" clip-path="url(#clip1_9449_35234)">
<path d="M264 74L274 64M274 64L264 54M274 64H264C252.954 64 244 72.9543 244 84M324 134L314 144M314 144L324 154M314 144H324C335.046 144 344 135.046 344 124M284.945 76.5C288.275 63.5608 300.021 54 314 54C330.569 54 344 67.4315 344 84C344 97.9787 334.439 109.724 321.5 113.055M304 124C304 140.569 290.569 154 274 154C257.431 154 244 140.569 244 124C244 107.431 257.431 94 274 94C290.569 94 304 107.431 304 124Z" stroke="url(#paint0_linear_9449_35234)" stroke-width="7" stroke-linecap="round" stroke-linejoin="round"/>
</g>
<g filter="url(#filter1_d_9449_35234)">
<path d="M161.25 91.416C160.012 91.416 158.823 91.224 157.682 90.84C156.551 90.4453 155.559 89.8853 154.706 89.16C153.852 88.424 153.239 87.544 152.866 86.52L156.53 85.176C156.679 85.6027 156.983 85.992 157.442 86.344C157.9 86.696 158.46 86.9787 159.122 87.192C159.783 87.4053 160.492 87.512 161.25 87.512C162.028 87.512 162.754 87.3947 163.426 87.16C164.108 86.9147 164.658 86.5787 165.074 86.152C165.49 85.7147 165.698 85.208 165.698 84.632C165.698 84.0453 165.479 83.5653 165.042 83.192C164.604 82.808 164.044 82.504 163.362 82.28C162.679 82.056 161.975 81.8853 161.25 81.768C159.66 81.5227 158.236 81.144 156.978 80.632C155.719 80.12 154.722 79.4107 153.986 78.504C153.26 77.5973 152.898 76.424 152.898 74.984C152.898 73.6293 153.287 72.4453 154.066 71.432C154.844 70.4187 155.868 69.6293 157.138 69.064C158.407 68.4987 159.778 68.216 161.25 68.216C162.476 68.216 163.66 68.408 164.802 68.792C165.943 69.176 166.94 69.736 167.794 70.472C168.658 71.208 169.276 72.0933 169.65 73.128L165.97 74.456C165.82 74.0293 165.516 73.64 165.058 73.288C164.599 72.936 164.039 72.6587 163.378 72.456C162.716 72.2427 162.007 72.136 161.25 72.136C160.492 72.1253 159.772 72.248 159.09 72.504C158.418 72.7493 157.868 73.0853 157.442 73.512C157.015 73.9387 156.802 74.4293 156.802 74.984C156.802 75.6987 156.999 76.2373 157.394 76.6C157.799 76.9627 158.338 77.2293 159.01 77.4C159.682 77.56 160.428 77.7093 161.25 77.848C162.743 78.0827 164.124 78.4773 165.394 79.032C166.663 79.5867 167.682 80.328 168.45 81.256C169.218 82.1733 169.602 83.2987 169.602 84.632C169.602 85.9867 169.218 87.176 168.45 88.2C167.682 89.2133 166.663 90.0027 165.394 90.568C164.124 91.1333 162.743 91.416 161.25 91.416ZM180.785 91H176.913L171.569 75H175.393L178.865 85.352L182.321 75H186.177L189.633 85.352L193.105 75H196.929L191.585 91H187.713L184.241 80.6L180.785 91ZM210.75 75H214.654V91H210.75L210.574 89.016C210.136 89.7307 209.555 90.312 208.83 90.76C208.115 91.1973 207.267 91.416 206.286 91.416C205.102 91.416 203.992 91.192 202.958 90.744C201.923 90.296 201.011 89.6773 200.222 88.888C199.443 88.0987 198.83 87.1867 198.382 86.152C197.944 85.1173 197.726 84.008 197.726 82.824C197.726 81.6827 197.934 80.6107 198.35 79.608C198.776 78.6053 199.368 77.7253 200.126 76.968C200.883 76.2107 201.758 75.6187 202.75 75.192C203.742 74.7653 204.808 74.552 205.95 74.552C207.006 74.552 207.95 74.7867 208.782 75.256C209.624 75.7253 210.339 76.3227 210.926 77.048L210.75 75ZM206.19 87.656C207.022 87.656 207.758 87.448 208.398 87.032C209.038 86.616 209.539 86.056 209.902 85.352C210.264 84.6373 210.446 83.8533 210.446 83C210.446 82.136 210.264 81.352 209.902 80.648C209.539 79.9333 209.032 79.368 208.382 78.952C207.742 78.536 207.011 78.328 206.19 78.328C205.368 78.328 204.616 78.5413 203.934 78.968C203.262 79.384 202.723 79.944 202.318 80.648C201.923 81.352 201.726 82.136 201.726 83C201.726 83.864 201.928 84.648 202.334 85.352C202.739 86.056 203.278 86.616 203.95 87.032C204.632 87.448 205.379 87.656 206.19 87.656ZM221.746 99H217.842V75H221.746V77.032C222.269 76.3067 222.909 75.72 223.666 75.272C224.434 74.8133 225.33 74.584 226.354 74.584C227.527 74.584 228.621 74.8027 229.634 75.24C230.647 75.6773 231.538 76.2853 232.306 77.064C233.085 77.832 233.687 78.7227 234.114 79.736C234.551 80.7493 234.77 81.8373 234.77 83C234.77 84.1627 234.551 85.256 234.114 86.28C233.687 87.304 233.085 88.2053 232.306 88.984C231.538 89.752 230.647 90.3547 229.634 90.792C228.621 91.2293 227.527 91.448 226.354 91.448C225.33 91.448 224.434 91.224 223.666 90.776C222.909 90.3173 222.269 89.7253 221.746 89V99ZM226.306 78.344C225.495 78.344 224.77 78.5573 224.13 78.984C223.49 79.4 222.989 79.96 222.626 80.664C222.263 81.368 222.082 82.1467 222.082 83C222.082 83.8533 222.263 84.6373 222.626 85.352C222.989 86.056 223.49 86.6213 224.13 87.048C224.77 87.464 225.495 87.672 226.306 87.672C227.127 87.672 227.879 87.464 228.562 87.048C229.245 86.632 229.789 86.072 230.194 85.368C230.599 84.6533 230.802 83.864 230.802 83C230.802 82.1467 230.599 81.368 230.194 80.664C229.789 79.96 229.245 79.4 228.562 78.984C227.89 78.5573 227.138 78.344 226.306 78.344Z" fill="url(#paint1_linear_9449_35234)"/>
</g>
</g>
<path d="M386 159H0V161H386V159Z" fill="white" fill-opacity="0.1" mask="url(#path-1-inside-1_9449_35234)"/>
<defs>
<filter id="filter0_f_9449_35234" x="-0.350006" y="-82.35" width="588.7" height="372.7" filterUnits="userSpaceOnUse" color-interpolation-filters="sRGB">
<feFlood flood-opacity="0" result="BackgroundImageFix"/>
<feBlend mode="normal" in="SourceGraphic" in2="BackgroundImageFix" result="shape"/>
<feGaussianBlur stdDeviation="71.675" result="effect1_foregroundBlur_9449_35234"/>
</filter>
<filter id="filter1_d_9449_35234" x="148.865" y="68.216" width="89.9043" height="38.784" filterUnits="userSpaceOnUse" color-interpolation-filters="sRGB">
<feFlood flood-opacity="0" result="BackgroundImageFix"/>
<feColorMatrix in="SourceAlpha" type="matrix" values="0 0 0 0 0 0 0 0 0 0 0 0 0 0 0 0 0 0 127 0" result="hardAlpha"/>
<feOffset dy="4"/>
<feGaussianBlur stdDeviation="2"/>
<feComposite in2="hardAlpha" operator="out"/>
<feColorMatrix type="matrix" values="0 0 0 0 0 0 0 0 0 0 0 0 0 0 0 0 0 0 0.25 0"/>
<feBlend mode="normal" in2="BackgroundImageFix" result="effect1_dropShadow_9449_35234"/>
<feBlend mode="normal" in="SourceGraphic" in2="effect1_dropShadow_9449_35234" result="shape"/>
</filter>
<linearGradient id="paint0_linear_9449_35234" x1="294" y1="154" x2="294" y2="54" gradientUnits="userSpaceOnUse">
<stop stop-color="#16FFB9" stop-opacity="0"/>
<stop offset="0.11" stop-color="#16FFB9" stop-opacity="0.08"/>
<stop offset="0.35" stop-color="#16FFB9" stop-opacity="0.3"/>
<stop offset="0.68" stop-color="#16FFB9" stop-opacity="0.64"/>
<stop offset="1" stop-color="#16FFB9"/>
</linearGradient>
<linearGradient id="paint1_linear_9449_35234" x1="158.398" y1="61" x2="214.008" y2="122.757" gradientUnits="userSpaceOnUse">
<stop stop-color="#01D1FF"/>
<stop offset="1" stop-color="#0194FF"/>
</linearGradient>
<clipPath id="clip0_9449_35234">
<path d="M0 0H386V160H0V0Z" fill="white"/>
</clipPath>
<clipPath id="clip1_9449_35234">
<rect width="120" height="120" fill="white" transform="translate(234 44)"/>
</clipPath>
</defs>
</svg>
